<mxfile host="app.diagrams.net" modified="2020-11-17T00:23:16.791Z" agent="5.0 (Macintosh; Intel Mac OS X 10_15_7) AppleWebKit/537.36 (KHTML, like Gecko) Chrome/86.0.4240.193 Safari/537.36" etag="YBcQkSQmQ4aHbpBSizFo" version="13.8.8" type="github">
  <diagram id="4lo-nAc2N3q-i4Q8PJuZ" name="Page-1">
    <mxGraphModel dx="1258" dy="843" grid="1" gridSize="10" guides="1" tooltips="1" connect="1" arrows="1" fold="1" page="1" pageScale="1" pageWidth="827" pageHeight="1169" math="0" shadow="0">
      <root>
        <mxCell id="0" />
        <mxCell id="1" parent="0" />
        <mxCell id="txfQp3O_FM5NLsIrfIoH-1" value="" style="shape=flexArrow;endArrow=classic;html=1;fillColor=#fad9d5;strokeColor=#ae4132;" edge="1" parent="1">
          <mxGeometry width="50" height="50" relative="1" as="geometry">
            <mxPoint x="10" y="190" as="sourcePoint" />
            <mxPoint x="790" y="190" as="targetPoint" />
          </mxGeometry>
        </mxCell>
        <mxCell id="txfQp3O_FM5NLsIrfIoH-2" value="stream" style="edgeLabel;html=1;align=center;verticalAlign=middle;resizable=0;points=[];" vertex="1" connectable="0" parent="txfQp3O_FM5NLsIrfIoH-1">
          <mxGeometry x="-0.0462" relative="1" as="geometry">
            <mxPoint as="offset" />
          </mxGeometry>
        </mxCell>
        <mxCell id="txfQp3O_FM5NLsIrfIoH-3" value="" style="endArrow=classic;html=1;" edge="1" parent="1">
          <mxGeometry width="50" height="50" relative="1" as="geometry">
            <mxPoint x="90" y="210" as="sourcePoint" />
            <mxPoint x="90" y="290" as="targetPoint" />
          </mxGeometry>
        </mxCell>
        <mxCell id="txfQp3O_FM5NLsIrfIoH-4" value="" style="endArrow=classic;html=1;" edge="1" parent="1">
          <mxGeometry width="50" height="50" relative="1" as="geometry">
            <mxPoint x="180" y="210" as="sourcePoint" />
            <mxPoint x="180" y="290" as="targetPoint" />
          </mxGeometry>
        </mxCell>
        <mxCell id="txfQp3O_FM5NLsIrfIoH-5" value="" style="endArrow=classic;html=1;" edge="1" parent="1">
          <mxGeometry width="50" height="50" relative="1" as="geometry">
            <mxPoint x="620" y="210" as="sourcePoint" />
            <mxPoint x="620" y="290" as="targetPoint" />
          </mxGeometry>
        </mxCell>
        <mxCell id="txfQp3O_FM5NLsIrfIoH-6" value="$$channel like &#39;%yingyongbao%&#39; &lt;br&gt;and $$version_code&amp;lt;6.0" style="text;html=1;align=center;verticalAlign=middle;resizable=0;points=[];autosize=1;" vertex="1" parent="1">
          <mxGeometry x="280" y="240" width="190" height="30" as="geometry" />
        </mxCell>
        <mxCell id="txfQp3O_FM5NLsIrfIoH-7" value="热点" style="shape=flexArrow;endArrow=classic;html=1;" edge="1" parent="1">
          <mxGeometry width="50" height="50" relative="1" as="geometry">
            <mxPoint x="480" y="320" as="sourcePoint" />
            <mxPoint x="540" y="380" as="targetPoint" />
          </mxGeometry>
        </mxCell>
        <mxCell id="txfQp3O_FM5NLsIrfIoH-8" value="" style="shape=flexArrow;endArrow=classic;html=1;" edge="1" parent="1">
          <mxGeometry width="50" height="50" relative="1" as="geometry">
            <mxPoint x="250" y="330" as="sourcePoint" />
            <mxPoint x="180" y="400" as="targetPoint" />
          </mxGeometry>
        </mxCell>
        <mxCell id="txfQp3O_FM5NLsIrfIoH-9" value="非热点" style="edgeLabel;html=1;align=center;verticalAlign=middle;resizable=0;points=[];" vertex="1" connectable="0" parent="txfQp3O_FM5NLsIrfIoH-8">
          <mxGeometry x="-0.3" y="-1" relative="1" as="geometry">
            <mxPoint as="offset" />
          </mxGeometry>
        </mxCell>
        <mxCell id="txfQp3O_FM5NLsIrfIoH-10" value="uid(158......)" style="rounded=0;whiteSpace=wrap;html=1;fillColor=#eeeeee;strokeColor=#36393d;" vertex="1" parent="1">
          <mxGeometry x="50" y="440" width="110" height="50" as="geometry" />
        </mxCell>
        <mxCell id="txfQp3O_FM5NLsIrfIoH-11" value=".........." style="rounded=0;whiteSpace=wrap;html=1;" vertex="1" parent="1">
          <mxGeometry x="50" y="490" width="110" height="50" as="geometry" />
        </mxCell>
        <mxCell id="txfQp3O_FM5NLsIrfIoH-12" value="qimei(123xxxx) + timestamp" style="rounded=0;whiteSpace=wrap;html=1;fillColor=#f9f7ed;strokeColor=#36393d;" vertex="1" parent="1">
          <mxGeometry x="160" y="440" width="190" height="20" as="geometry" />
        </mxCell>
        <mxCell id="txfQp3O_FM5NLsIrfIoH-13" value="qimei(234xxxx) + timestamp" style="rounded=0;whiteSpace=wrap;html=1;fillColor=#f9f7ed;strokeColor=#36393d;" vertex="1" parent="1">
          <mxGeometry x="160" y="460" width="190" height="20" as="geometry" />
        </mxCell>
        <mxCell id="txfQp3O_FM5NLsIrfIoH-14" value="&lt;b&gt;&lt;font style=&quot;font-size: 14px&quot;&gt;.&lt;br&gt;.&lt;br&gt;.&lt;/font&gt;&lt;/b&gt;" style="text;html=1;strokeColor=none;fillColor=none;align=center;verticalAlign=middle;whiteSpace=wrap;rounded=0;" vertex="1" parent="1">
          <mxGeometry x="235" y="500" width="40" height="20" as="geometry" />
        </mxCell>
        <mxCell id="txfQp3O_FM5NLsIrfIoH-15" value="redis zset" style="text;html=1;strokeColor=none;fillColor=none;align=center;verticalAlign=middle;whiteSpace=wrap;rounded=0;" vertex="1" parent="1">
          <mxGeometry x="160" y="570" width="70" height="25" as="geometry" />
        </mxCell>
        <mxCell id="txfQp3O_FM5NLsIrfIoH-16" value="dd_key" style="text;html=1;strokeColor=none;fillColor=none;align=center;verticalAlign=middle;whiteSpace=wrap;rounded=0;" vertex="1" parent="1">
          <mxGeometry x="480" y="457.5" width="50" height="25" as="geometry" />
        </mxCell>
        <mxCell id="txfQp3O_FM5NLsIrfIoH-17" value="" style="shape=curlyBracket;whiteSpace=wrap;html=1;rounded=1;" vertex="1" parent="1">
          <mxGeometry x="530" y="403.75" width="30" height="137.5" as="geometry" />
        </mxCell>
        <mxCell id="txfQp3O_FM5NLsIrfIoH-20" value="hh_key" style="rounded=0;whiteSpace=wrap;html=1;" vertex="1" parent="1">
          <mxGeometry x="570" y="403.75" width="60" height="16" as="geometry" />
        </mxCell>
        <mxCell id="txfQp3O_FM5NLsIrfIoH-22" value="01_hour" style="rounded=0;whiteSpace=wrap;html=1;" vertex="1" parent="1">
          <mxGeometry x="570" y="430" width="60" height="16" as="geometry" />
        </mxCell>
        <mxCell id="txfQp3O_FM5NLsIrfIoH-23" value="23_hour" style="rounded=0;whiteSpace=wrap;html=1;" vertex="1" parent="1">
          <mxGeometry x="570" y="530" width="60" height="16" as="geometry" />
        </mxCell>
        <mxCell id="txfQp3O_FM5NLsIrfIoH-24" value="&lt;b&gt;&lt;font style=&quot;font-size: 14px&quot;&gt;.&lt;br&gt;.&lt;br&gt;.&lt;/font&gt;&lt;/b&gt;" style="text;html=1;strokeColor=none;fillColor=none;align=center;verticalAlign=middle;whiteSpace=wrap;rounded=0;" vertex="1" parent="1">
          <mxGeometry x="580" y="470" width="40" height="20" as="geometry" />
        </mxCell>
        <mxCell id="txfQp3O_FM5NLsIrfIoH-25" value="" style="endArrow=classic;html=1;" edge="1" parent="1">
          <mxGeometry width="50" height="50" relative="1" as="geometry">
            <mxPoint x="690" y="439" as="sourcePoint" />
            <mxPoint x="640" y="439" as="targetPoint" />
          </mxGeometry>
        </mxCell>
        <mxCell id="txfQp3O_FM5NLsIrfIoH-26" value="&lt;b&gt;incr&lt;/b&gt;" style="text;html=1;align=center;verticalAlign=middle;resizable=0;points=[];autosize=1;" vertex="1" parent="1">
          <mxGeometry x="689" y="428" width="40" height="20" as="geometry" />
        </mxCell>
      </root>
    </mxGraphModel>
  </diagram>
</mxfile>
